<svg width="140" height="90" viewBox="0 0 140 90" fill="none" xmlns="http://www.w3.org/2000/svg">
<path d="M1 11C1 5.47715 5.47715 1 11 1H129C134.523 1 139 5.47715 139 11V20H1V11Z" fill="#D9D9D9"/>
<path d="M128 87V90H12V87H128ZM137 78V12C137 7.02944 132.971 3 128 3H12C7.02944 3 3 7.02944 3 12V78C3 82.9706 7.02944 87 12 87V90L11.6904 89.9961C5.30896 89.8345 0.165501 84.691 0.00390625 78.3096L0 78V12C0 5.37258 5.37258 1.77171e-07 12 0H128C134.627 0 140 5.37258 140 12V78C140 84.5239 134.794 89.8319 128.31 89.9961L128 90V87C132.971 87 137 82.9706 137 78Z" fill="#222222"/>
<path d="M80.4836 61.4546L83.9992 72.5057H84.1341L87.6569 61.4546H91.066L86.0518 76H82.0887L77.0674 61.4546H80.4836Z" fill="black"/>
<path d="M72.6416 65.638C72.5848 65.065 72.3409 64.62 71.9101 64.3027C71.4792 63.9855 70.8944 63.8269 70.1558 63.8269C69.6539 63.8269 69.2301 63.8979 68.8845 64.04C68.5389 64.1773 68.2737 64.369 68.089 64.6152C67.9091 64.8614 67.8192 65.1408 67.8192 65.4533C67.8097 65.7137 67.8641 65.941 67.9825 66.1351C68.1056 66.3293 68.2737 66.4973 68.4868 66.6394C68.6998 66.7767 68.9461 66.8974 69.2254 67.0016C69.5048 67.101 69.8031 67.1863 70.1203 67.2573L71.4271 67.5698C72.0616 67.7118 72.644 67.9012 73.1743 68.138C73.7046 68.3747 74.1639 68.6659 74.5521 69.0115C74.9404 69.3572 75.241 69.7644 75.4541 70.2331C75.6719 70.7019 75.7832 71.2393 75.7879 71.8453C75.7832 72.7355 75.5559 73.5073 75.1061 74.1607C74.661 74.8094 74.0171 75.3136 73.1743 75.6735C72.3362 76.0286 71.3253 76.2061 70.1416 76.2061C68.9674 76.2061 67.9446 76.0262 67.0734 75.6664C66.2069 75.3065 65.5299 74.7739 65.0422 74.0684C64.5592 73.3581 64.3059 72.4798 64.2822 71.4334H67.2581C67.2912 71.9211 67.4309 72.3283 67.6771 72.655C67.9281 72.977 68.2619 73.2208 68.6785 73.3865C69.0999 73.5475 69.5758 73.628 70.1061 73.628C70.6269 73.628 71.0791 73.5523 71.4626 73.4007C71.8509 73.2492 72.1515 73.0385 72.3646 72.7686C72.5777 72.4988 72.6842 72.1886 72.6842 71.8382C72.6842 71.5115 72.5872 71.2369 72.393 71.0144C72.2036 70.7918 71.9243 70.6025 71.555 70.4462C71.1904 70.29 70.7429 70.1479 70.2126 70.0201L68.6288 69.6223C67.4025 69.324 66.4342 68.8577 65.724 68.2232C65.0138 67.5887 64.661 66.7341 64.6658 65.6593C64.661 64.7786 64.8954 64.0092 65.3689 63.351C65.8471 62.6929 66.5029 62.1792 67.3362 61.8098C68.1695 61.4405 69.1165 61.2559 70.1771 61.2559C71.2567 61.2559 72.1989 61.4405 73.0038 61.8098C73.8135 62.1792 74.4432 62.6929 74.893 63.351C75.3428 64.0092 75.5748 64.7715 75.589 65.638H72.6416Z" fill="black"/>
<path d="M62.5455 66.5471H59.4347C59.3779 66.1446 59.2619 65.7871 59.0867 65.4746C58.9115 65.1574 58.6866 64.8875 58.412 64.665C58.1374 64.4424 57.8202 64.272 57.4603 64.1536C57.1052 64.0352 56.7193 63.976 56.3026 63.976C55.5498 63.976 54.894 64.1631 54.3353 64.5371C53.7766 64.9064 53.3434 65.4462 53.0356 66.1564C52.7278 66.8619 52.574 67.7189 52.574 68.7275C52.574 69.7644 52.7278 70.6356 53.0356 71.3411C53.3481 72.0466 53.7837 72.5792 54.3424 72.9391C54.9011 73.2989 55.5474 73.4789 56.2813 73.4789C56.6933 73.4789 57.0744 73.4244 57.4248 73.3155C57.7799 73.2066 58.0948 73.048 58.3694 72.8397C58.644 72.6266 58.8713 72.3685 59.0512 72.0655C59.2359 71.7625 59.3637 71.4168 59.4347 71.0286L62.5455 71.0428C62.4651 71.7104 62.2638 72.3543 61.9418 72.9746C61.6246 73.5901 61.1961 74.1417 60.6563 74.6294C60.1213 75.1124 59.4821 75.4959 58.7387 75.78C58.0001 76.0594 57.1644 76.199 56.2316 76.199C54.9343 76.199 53.7742 75.9055 52.7515 75.3184C51.7335 74.7312 50.9286 73.8813 50.3367 72.7686C49.7496 71.656 49.4561 70.3089 49.4561 68.7275C49.4561 67.1413 49.7543 65.7918 50.3509 64.6792C50.9475 63.5665 51.7572 62.7189 52.7799 62.1365C53.8026 61.5494 54.9532 61.2559 56.2316 61.2559C57.0744 61.2559 57.8557 61.3742 58.5754 61.611C59.2998 61.8477 59.9414 62.1934 60.5001 62.6479C61.0588 63.0977 61.5133 63.6493 61.8637 64.3027C62.2188 64.9561 62.4461 65.7043 62.5455 66.5471Z" fill="black"/>
<path d="M45.0303 75.5684L45.0342 75.5771L45.0391 75.5859C45.5727 76.5892 46.2266 77.5136 47 78.3359V90H45V75.5078C45.0104 75.5278 45.0197 75.5484 45.0303 75.5684ZM140 70V72H94V90H92V77.1553L94.4668 70H140ZM88.1201 70L87.4307 72H84.2959L84.9336 70H88.1201ZM83.2021 70L83.8379 72H80.708L80.0176 70H83.2021ZM75.3369 70C75.3782 70.0762 75.4179 70.1537 75.4541 70.2334C75.6717 70.7019 75.7823 71.2391 75.7871 71.8447C75.7868 71.8969 75.7831 71.9486 75.7812 72H72.6748C72.6801 71.9469 72.6836 71.8929 72.6836 71.8379C72.6836 71.5114 72.5865 71.2371 72.3926 71.0146C72.2032 70.7922 71.9239 70.6025 71.5547 70.4463C71.1901 70.29 70.7422 70.1474 70.2119 70.0195L70.1338 70H75.3369ZM67.2578 71.4336C67.2716 71.6364 67.3048 71.825 67.3555 72H64.3223C64.302 71.8169 64.2866 71.6283 64.2822 71.4336H67.2578ZM62.5449 71.043C62.5058 71.3676 62.438 71.6866 62.3418 72H59.0859C59.2504 71.7125 59.3685 71.3895 59.4346 71.0283L62.5449 71.043ZM52.6641 70C52.7398 70.4988 52.8629 70.9459 53.0352 71.3408C53.1415 71.5809 53.2635 71.8 53.3984 72H49.9922C49.7631 71.392 49.6096 70.7252 49.5273 70H52.6641ZM43.501 70C43.549 70.6683 43.6387 71.3366 43.7734 72H0V70H43.501ZM47 19H92V0H94V19H140V21H94V36H140V38H94V53H140V55H94V55.4541H92V55H47V59.1367C46.2382 59.9473 45.5918 60.8566 45.0625 61.8438C45.041 61.8838 45.021 61.9246 45 61.9648V55H0V53H45V38H0V36H45V21H0V19H45V0H47V19ZM47 53H92V38H47V53ZM47 36H92V21H47V36Z" fill="#444444"/>
</svg>
