<svg width="10" height="14" viewBox="0 0 10 14" fill="none" xmlns="http://www.w3.org/2000/svg">
<path d="M1 12.8V1.2C1 1.08954 1.08954 1 1.2 1H5.91716C5.9702 1 6.02107 1.02107 6.05858 1.05858L8.94142 3.94142C8.97893 3.97893 9 4.0298 9 4.08284V12.8C9 12.9105 8.91046 13 8.8 13H1.2C1.08954 13 1 12.9105 1 12.8Z" fill="#E1E1E1"/>
<path d="M1.5 12.5H8.5V4.20703L5.79297 1.5H1.5V12.5ZM9.5 12.7998C9.5 13.1864 9.1864 13.5 8.7998 13.5H1.2002C0.813597 13.5 0.5 13.1864 0.5 12.7998V1.2002C0.5 0.813597 0.813595 0.5 1.2002 0.5H5.91699L6.05469 0.513672C6.18911 0.54061 6.31373 0.606703 6.41211 0.705078L9.29492 3.58789C9.4262 3.71917 9.5 3.89736 9.5 4.08301V12.7998Z" fill="black"/>
<path d="M6.04865 9.54541L6.40021 10.6505H6.41371L6.76598 9.54541H7.10689L6.60547 11H6.20916L5.70703 9.54541H6.04865Z" fill="black"/>
<path d="M5.26367 9.9636C5.25799 9.90631 5.23361 9.8618 5.19052 9.83008C5.14743 9.79835 5.08896 9.78249 5.01509 9.78249C4.9649 9.78249 4.92253 9.7896 4.88796 9.8038C4.8534 9.81753 4.82688 9.83671 4.80842 9.86133C4.79042 9.88595 4.78143 9.91388 4.78143 9.94513C4.78048 9.97118 4.78593 9.9939 4.79776 10.0133C4.81007 10.0327 4.82688 10.0495 4.84819 10.0637C4.8695 10.0775 4.89412 10.0895 4.92205 10.1C4.94999 10.1099 4.97982 10.1184 5.01154 10.1255L5.14222 10.1568C5.20567 10.171 5.26391 10.1899 5.31694 10.2136C5.36997 10.2373 5.4159 10.2664 5.45472 10.301C5.49355 10.3355 5.52362 10.3762 5.54492 10.4231C5.5667 10.47 5.57783 10.5237 5.5783 10.5843C5.57783 10.6734 5.5551 10.7505 5.51012 10.8159C5.46561 10.8807 5.40122 10.9312 5.31694 10.9672C5.23313 11.0027 5.13204 11.0204 5.01367 11.0204C4.89625 11.0204 4.79397 11.0024 4.70685 10.9664C4.62021 10.9305 4.5525 10.8772 4.50373 10.8066C4.45543 10.7356 4.4301 10.6478 4.42773 10.5431H4.72532C4.72863 10.5919 4.7426 10.6326 4.76722 10.6653C4.79232 10.6975 4.8257 10.7219 4.86736 10.7385C4.90951 10.7546 4.95709 10.7626 5.01012 10.7626C5.0622 10.7626 5.10742 10.755 5.14577 10.7399C5.1846 10.7247 5.21467 10.7037 5.23597 10.6767C5.25728 10.6497 5.26793 10.6187 5.26793 10.5836C5.26793 10.551 5.25823 10.5235 5.23881 10.5012C5.21987 10.479 5.19194 10.46 5.15501 10.4444C5.11855 10.4288 5.0738 10.4146 5.02077 10.4018L4.86239 10.362C4.73976 10.3322 4.64293 10.2856 4.57191 10.2221C4.50089 10.1587 4.46561 10.0732 4.46609 9.96573C4.46561 9.87766 4.48905 9.80072 4.5364 9.73491C4.58422 9.66909 4.6498 9.61772 4.73313 9.58079C4.81647 9.54386 4.91116 9.52539 5.01722 9.52539C5.12518 9.52539 5.2194 9.54386 5.29989 9.58079C5.38086 9.61772 5.44383 9.66909 5.48881 9.73491C5.53379 9.80072 5.557 9.87695 5.55842 9.9636H5.26367Z" fill="black"/>
<path d="M4.25426 10.0545H3.94318C3.9375 10.0143 3.9259 9.97852 3.90838 9.94727C3.89086 9.91554 3.86837 9.88855 3.84091 9.8663C3.81345 9.84405 3.78172 9.827 3.74574 9.81516C3.71023 9.80333 3.67164 9.79741 3.62997 9.79741C3.55469 9.79741 3.48911 9.81611 3.43324 9.85352C3.37737 9.89045 3.33404 9.94442 3.30327 10.0154C3.27249 10.086 3.2571 10.1717 3.2571 10.2725C3.2571 10.3762 3.27249 10.4634 3.30327 10.5339C3.33452 10.6045 3.37808 10.6577 3.43395 10.6937C3.48982 10.7297 3.55445 10.7477 3.62784 10.7477C3.66903 10.7477 3.70715 10.7422 3.74219 10.7314C3.7777 10.7205 3.80919 10.7046 3.83665 10.6838C3.86411 10.6625 3.88684 10.6367 3.90483 10.6064C3.9233 10.5761 3.93608 10.5415 3.94318 10.5027L4.25426 10.5041C4.24621 10.5708 4.22609 10.6352 4.19389 10.6973C4.16217 10.7588 4.11932 10.814 4.06534 10.8627C4.01184 10.911 3.94792 10.9494 3.87358 10.9778C3.79972 11.0057 3.71615 11.0197 3.62287 11.0197C3.49313 11.0197 3.37713 10.9904 3.27486 10.9316C3.17306 10.8729 3.09257 10.7879 3.03338 10.6767C2.97467 10.5654 2.94531 10.4307 2.94531 10.2725C2.94531 10.1139 2.97514 9.97899 3.0348 9.86772C3.09446 9.75645 3.17543 9.6717 3.2777 9.61346C3.37997 9.55475 3.49503 9.52539 3.62287 9.52539C3.70715 9.52539 3.78527 9.53723 3.85724 9.5609C3.92969 9.58458 3.99384 9.61914 4.04972 9.6646C4.10559 9.70958 4.15104 9.76474 4.18608 9.83008C4.22159 9.89542 4.24432 9.97023 4.25426 10.0545Z" fill="black"/>
</svg>
