<svg width="200" height="350" viewBox="0 0 200 350" fill="none" xmlns="http://www.w3.org/2000/svg">
<path d="M200 300C200 327.614 155.228 350 100 350C44.7715 350 0 327.614 0 300V250H200V300Z" fill="#878787"/>
<path d="M190 300V260H10V300C10 307.979 16.7283 317.894 33.7617 326.411C50.197 334.629 73.6017 340 100 340V350C44.7715 350 0 327.614 0 300V250H200V300C200 327.614 155.228 350 100 350V340C126.398 340 149.803 334.629 166.238 326.411C183.272 317.894 190 307.979 190 300Z" fill="black"/>
<path d="M100 205C127.006 205 151.209 210.484 168.475 219.117C186.039 227.9 195 239.107 195 250C195 260.893 186.039 272.1 168.475 280.883C151.209 289.516 127.006 295 100 295C72.9937 295 48.7912 289.516 31.5254 280.883C13.9606 272.1 5 260.893 5 250C5 239.107 13.9606 227.9 31.5254 219.117C48.7912 210.484 72.9937 205 100 205Z" fill="#B9B9B9" stroke="black" stroke-width="10"/>
<path d="M200 200C200 227.614 155.228 250 100 250C44.7715 250 0 227.614 0 200V150H200V200Z" fill="#878787"/>
<path d="M190 200V160H10V200C10 207.979 16.7283 217.894 33.7617 226.411C50.197 234.629 73.6017 240 100 240V250C44.7715 250 0 227.614 0 200V150H200V200C200 227.614 155.228 250 100 250V240C126.398 240 149.803 234.629 166.238 226.411C183.272 217.894 190 207.979 190 200Z" fill="black"/>
<path d="M100 105C127.006 105 151.209 110.484 168.475 119.117C186.039 127.9 195 139.107 195 150C195 160.893 186.039 172.1 168.475 180.883C151.209 189.516 127.006 195 100 195C72.9937 195 48.7912 189.516 31.5254 180.883C13.9606 172.1 5 160.893 5 150C5 139.107 13.9606 127.9 31.5254 119.117C48.7912 110.484 72.9937 105 100 105Z" fill="#B9B9B9" stroke="black" stroke-width="10"/>
<path d="M200 100C200 127.614 155.228 150 100 150C44.7715 150 0 127.614 0 100V50H200V100Z" fill="#878787"/>
<path d="M190 100V60H10V100C10 107.979 16.7283 117.894 33.7617 126.411C50.197 134.629 73.6017 140 100 140V150C44.7715 150 0 127.614 0 100V50H200V100C200 127.614 155.228 150 100 150V140C126.398 140 149.803 134.629 166.238 126.411C183.272 117.894 190 107.979 190 100Z" fill="black"/>
<path d="M200 50C200 77.6142 155.228 100 100 100C44.7715 100 0 77.6142 0 50C0 22.3858 44.7715 0 100 0C155.228 0 200 22.3858 200 50Z" fill="#B9B9B9"/>
<path d="M190 50C190 42.0212 183.272 32.1056 166.238 23.5889C149.803 15.3713 126.398 10 100 10C73.6017 10 50.197 15.3713 33.7617 23.5889C16.7283 32.1056 10 42.0212 10 50C10 57.9788 16.7283 67.8944 33.7617 76.4111C50.197 84.6287 73.6017 90 100 90V100C44.7715 100 0 77.6142 0 50C0 22.3858 44.7715 0 100 0C155.228 0 200 22.3858 200 50C200 77.6142 155.228 100 100 100V90C126.398 90 149.803 84.6287 166.238 76.4111C183.272 67.8944 190 57.9788 190 50Z" fill="black"/>
</svg>
