<svg width="100" height="175" viewBox="0 0 100 175" fill="none" xmlns="http://www.w3.org/2000/svg">
<path d="M100 150C100 163.807 77.6142 175 50 175C22.3858 175 0 163.807 0 150V125H100V150Z" fill="#878787"/>
<path d="M97 150V128H3V150C3 155.155 7.25707 160.629 15.9863 164.994C24.5362 169.269 36.5576 172 50 172V175C22.3858 175 0 163.807 0 150V125H100V150C100 163.807 77.6142 175 50 175V172C63.4424 172 75.4638 169.269 84.0137 164.994C92.7429 160.629 97 155.155 97 150Z" fill="black"/>
<path d="M50 101.5C63.6247 101.5 75.8855 104.265 84.6846 108.664C93.5733 113.108 98.5 118.971 98.5 125C98.5 131.029 93.5733 136.892 84.6846 141.336C75.8855 145.735 63.6247 148.5 50 148.5C36.3753 148.5 24.1145 145.735 15.3154 141.336C6.42672 136.892 1.5 131.029 1.5 125C1.5 118.971 6.42672 113.108 15.3154 108.664C24.1145 104.265 36.3753 101.5 50 101.5Z" fill="#B9B9B9" stroke="black" stroke-width="3"/>
<path d="M100 100C100 113.807 77.6142 125 50 125C22.3858 125 0 113.807 0 100V75H100V100Z" fill="#878787"/>
<path d="M97 100V78H3V100C3 105.155 7.25707 110.629 15.9863 114.994C24.5362 119.269 36.5576 122 50 122V125C22.3858 125 0 113.807 0 100V75H100V100C100 113.807 77.6142 125 50 125V122C63.4424 122 75.4638 119.269 84.0137 114.994C92.7429 110.629 97 105.155 97 100Z" fill="black"/>
<path d="M50 51.5C63.6247 51.5 75.8855 54.2645 84.6846 58.6641C93.5733 63.1084 98.5 68.9707 98.5 75C98.5 81.0293 93.5733 86.8916 84.6846 91.3359C75.8855 95.7355 63.6247 98.5 50 98.5C36.3753 98.5 24.1145 95.7355 15.3154 91.3359C6.42672 86.8916 1.5 81.0293 1.5 75C1.5 68.9707 6.42672 63.1084 15.3154 58.6641C24.1145 54.2645 36.3753 51.5 50 51.5Z" fill="#B9B9B9" stroke="black" stroke-width="3"/>
<path d="M100 50C100 63.8071 77.6142 75 50 75C22.3858 75 0 63.8071 0 50V25H100V50Z" fill="#878787"/>
<path d="M97 50V28H3V50C3 55.1551 7.25707 60.6295 15.9863 64.9941C24.5362 69.2691 36.5576 72 50 72V75C22.3858 75 0 63.8071 0 50V25H100V50C100 63.8071 77.6142 75 50 75V72C63.4424 72 75.4638 69.2691 84.0137 64.9941C92.7429 60.6295 97 55.1551 97 50Z" fill="black"/>
<path d="M50 1.5C63.6247 1.5 75.8855 4.26454 84.6846 8.66406C93.5733 13.1084 98.5 18.9707 98.5 25C98.5 31.0293 93.5733 36.8916 84.6846 41.3359C75.8855 45.7355 63.6247 48.5 50 48.5C36.3753 48.5 24.1145 45.7355 15.3154 41.3359C6.42672 36.8916 1.5 31.0293 1.5 25C1.5 18.9707 6.42672 13.1084 15.3154 8.66406C24.1145 4.26454 36.3753 1.5 50 1.5Z" fill="#B9B9B9" stroke="black" stroke-width="3"/>
</svg>
